#!OML:ASF I:\Actors\actors\Patient Classification 1\Patient 1\Session 1\Subject1.ASF
:FULLY-SPECIFIED
:DEGREES
542
root -0.547288 17.5117 7.47926 6.08995 -7.85348 -7.46188
lowerback 1.16611 3.35814 5.67784
upperback -7.99426 4.88215 0.391563
thorax -8.66189 2.00704 -3.14991
lowerneck -13.4563 1.81147 5.33598
upperneck 32.417 1.13213 0.182165
head 13.1509 1.19248 -0.685091
rclavicle -3.77691e-015 -1.19271e-014
rhumerus 3.29401 58.2985 -80.5643
rradius 100.611
rwrist 31.8037
rhand 1.39838 -50.9973
rfingers 7.12502
rthumb 26.9291 -79.0986
lclavicle -3.77691e-015 -1.19271e-014
lhumerus -44.8944 -24.151 104.639
lradius 110.919
lwrist 61.0158
lhand -39.55 -11.9663
lfingers 7.12502
lthumb -12.534 17.6377
rfemur -0.892599 22.6562 25.3691
rtibia 1.65078
rfoot -10.6027 -15.6572
rtoes -1.61076
lfemur 10.9072 -40.1346 -18.9008
ltibia -4.11462
lfoot -28.8405 53.8689
ltoes 19.7494
543
root -0.549252 17.5117 7.4764 6.09691 -7.7048 -7.56349
lowerback 1.09442 3.29815 5.66087
upperback -7.96266 4.80058 0.483866
thorax -8.60133 1.97497 -3.03132
lowerneck -13.4794 1.74934 5.20934
upperneck 32.2822 1.03872 0.288901
head 13.0935 1.1472 -0.635765
rclavicle 2.64384e-014 -9.54166e-015
rhumerus 3.05333 57.299 -80.9437
rradius 99.6014
rwrist 27.7598
rhand 1.61998 -52.3109
rfingers 7.12502
rthumb 27.1411 -80.3794
lclavicle 2.64384e-014 -9.54166e-015
lhumerus -44.4905 -24.0905 104.71
lradius 111.218
lwrist 60.8132
lhand -39.5706 -12.9648
lfingers 7.12502
lthumb -12.5538 16.6381
rfemur -0.890473 22.6236 25.4999
rtibia 1.67446
rfoot -10.6369 -15.7199
rtoes -1.27607
lfemur 10.8207 -40.1376 -18.7087
ltibia -4.0815
lfoot -28.5799 53.8505
ltoes 19.3128
544
root -0.551415 17.512 7.47342 6.08243 -7.54257 -7.6414
lowerback 1.17772 3.25544 5.59575
upperback -8.00111 4.75298 0.553999
thorax -8.70779 1.95456 -2.92562
lowerneck -13.4952 1.67665 5.15976
upperneck 32.2035 0.920513 0.360747
head 13.0593 1.09711 -0.617073
rclavicle 1.95803e-014 -1.55052e-014
rhumerus 4.35444 57.6919 -78.9166
rradius 99.5433
rwrist 21.5096
rhand 1.6052 -54.057
rfingers 7.12502
rthumb 27.127 -82.1276
lclavicle 1.95803e-014 -1.55052e-014
lhumerus -44.1935 -23.9279 104.754
lradius 111.478
lwrist 60.6505
lhand -39.8298 -13.3747
lfingers 7.12502
lthumb -12.8037 16.2127
rfemur -0.878995 22.588 25.614
rtibia 1.71145
rfoot -10.6862 -15.8181
rtoes -1.30298
lfemur 10.8189 -40.274 -18.6078
ltibia -4.09467
lfoot -28.4533 53.9271
ltoes 18.9402
545
root -0.552859 17.5118 7.47224 6.06177 -7.36741 -7.60513
lowerback 1.19066 3.24726 5.44351
upperback -8.00677 4.73474 0.554556
thorax -8.73329 1.95585 -2.84107
lowerneck -13.4861 1.58045 5.12685
upperneck 32.0374 0.749888 0.482863
head 12.982 1.03107 -0.58986
rclavicle 2.98177e-016 1.74931e-014
rhumerus 3.87877 57.441 -78.8594
rradius 99.5071
rwrist 16.896
rhand 2.57222 -54.5318
rfingers 7.12502
rthumb 28.0517 -82.4547
lclavicle 2.98177e-016 1.74931e-014
lhumerus -43.8509 -23.8345 104.725
lradius 111.601
lwrist 60.8381
lhand -40.1099 -13.7608
lfingers 7.12502
lthumb -13.0737 15.8094
rfemur -0.853119 22.5285 25.5938
rtibia 1.69825
rfoot -10.7151 -15.9566
rtoes -1.58711
lfemur 10.8569 -40.4897 -18.6807
ltibia -4.13051
lfoot -28.3967 54.0197
ltoes 18.908
546
root -0.553055 17.5113 7.47282 6.06407 -7.16135 -7.59783
lowerback 1.15019 3.22399 5.39417
upperback -7.98733 4.69602 0.539579
thorax -8.69301 1.94177 -2.8234
lowerneck -13.6613 1.46845 4.86386
upperneck 31.9771 0.535159 0.82117
head 12.9862 0.94846 -0.444219
rclavicle 1.5207e-014 -3.97569e-015
rhumerus 2.23699 56.8513 -80.0839
rradius 99.6274
rwrist 15.3133
rhand 2.3275 -53.7378
rfingers 7.12502
rthumb 27.8178 -81.6988
lclavicle 1.5207e-014 -3.97569e-015
lhumerus -43.4454 -23.7139 104.582
lradius 111.59
lwrist 61.3169
lhand -40.3543 -14.4873
lfingers 7.12502
lthumb -13.3093 15.0677
rfemur -0.827371 22.4899 25.601
rtibia 1.65151
rfoot -10.6912 -16.1439
rtoes -1.60731
lfemur 10.7814 -40.5499 -18.6266
ltibia -4.11891
lfoot -28.1923 53.9225
ltoes 18.8608
547
root -0.553138 17.5109 7.47358 6.06923 -6.94022 -7.6158
lowerback 1.10473 3.18323 5.24925
upperback -7.96584 4.63557 0.627802
thorax -8.66435 1.92783 -2.64249
lowerneck -13.6414 1.40478 4.82105
upperneck 31.7376 0.469628 0.789047
head 12.8788 0.905473 -0.460063
rclavicle -2.00773e-014 -1.39149e-014
rhumerus 1.57608 56.9878 -79.8974
rradius 100.371
rwrist 15.5631
rhand 1.4859 -52.4501
rfingers 7.12502
rthumb 27.0128 -80.5385
lclavicle -2.00773e-014 -1.39149e-014
lhumerus -43.06 -23.4288 104.492
lradius 111.479
lwrist 61.6959
lhand -40.6205 -14.9891
lfingers 7.12502
lthumb -13.5659 14.5489
rfemur -0.806604 22.4686 25.6385
rtibia 1.62431
rfoot -10.6684 -16.3309
rtoes -1.61796
lfemur 10.6309 -40.4769 -18.4714
ltibia -4.0877
lfoot -27.7546 53.7474
ltoes 18.4477
548
root -0.553858 17.5107 7.47588 6.08151 -6.71967 -7.56944
lowerback 1.03082 3.13029 5.14291
upperback -7.95754 4.55301 0.627394
thorax -8.62481 1.89661 -2.57325
lowerneck -13.5984 1.34217 4.87703
upperneck 31.5164 0.393193 0.71279
head 12.7755 0.86368 -0.511517
rclavicle -5.1684e-015 7.15625e-015
rhumerus 1.89933 57.6776 -78.632
rradius 101.555
rwrist 16.0857
rhand 2.05932 -52.5195
rfingers 7.12502
rthumb 27.5613 -80.5217
lclavicle -5.1684e-015 7.15625e-015
lhumerus -42.7804 -23.1296 104.232
lradius 111.372
lwrist 62.0801
lhand -40.8717 -14.6528
lfingers 7.12502
lthumb -13.808 14.8689
rfemur -0.804357 22.4759 25.6025
rtibia 1.63603
rfoot -10.7542 -16.5215
rtoes -1.44409
lfemur 10.5138 -40.4667 -18.4179
ltibia -4.09458
lfoot -27.3761 53.6529
ltoes 18.1007
549
root -0.553607 17.511 7.479 6.11017 -6.51408 -7.53937
lowerback 0.927329 3.02762 5.10336
upperback -7.95141 4.40646 0.642203
thorax -8.57201 1.82999 -2.51858
lowerneck -13.5344 1.32711 4.83663
upperneck 31.3327 0.389408 0.710667
head 12.6848 0.852675 -0.506772
rclavicle 1.32192e-014 5.1684e-015
rhumerus 1.75729 58.1922 -78.1606
rradius 102.612
rwrist 16.8169
rhand 2.53225 -52.7877
rfingers 7.12502
rthumb 28.0135 -80.7169
lclavicle 1.32192e-014 5.1684e-015
lhumerus -42.5439 -22.6368 103.873
lradius 111.273
lwrist 62.7198
lhand -41.245 -13.7496
lfingers 7.12502
lthumb -14.1677 15.7473
rfemur -0.827193 22.5374 25.5792
rtibia 1.67864
rfoot -10.8995 -16.7308
rtoes -0.990884
lfemur 10.4418 -40.6169 -18.405
ltibia -4.10265
lfoot -27.3131 53.6165
ltoes 18.2389
550
root -0.553415 17.5109 7.48106 6.11179 -6.35352 -7.53482
lowerback 0.889826 2.91915 5.23807
upperback -7.9508 4.26102 0.582589
thorax -8.54788 1.74704 -2.64311
lowerneck -13.4859 1.32688 4.80419
upperneck 31.2228 0.384158 0.764811
head 12.6288 0.850656 -0.481785
rclavicle -5.76476e-015 1.19271e-014
rhumerus 1.07319 58.449 -78.6298
rradius 103.314
rwrist 18.75
rhand 2.06788 -52.7881
rfingers 7.12502
rthumb 27.5695 -80.7889
lclavicle -5.76476e-015 1.19271e-014
lhumerus -42.3073 -22.2014 103.404
lradius 111.133
lwrist 63.7035
lhand -42.0028 -12.7614
lfingers 7.12502
lthumb -14.8979 16.6829
rfemur -0.818518 22.6123 25.5909
rtibia 1.68631
rfoot -10.963 -16.907
rtoes -0.787171
lfemur 10.3881 -40.7209 -18.3709
ltibia -4.09352
lfoot -27.1349 53.5791
ltoes 18.1709
551
root -0.554627 17.5101 7.48391 6.10322 -6.25113 -7.51314
lowerback 0.889685 2.8426 5.33408
upperback -7.97688 4.15924 0.510726
thorax -8.57398 1.68568 -2.76562
lowerneck -13.4946 1.3025 4.79784
upperneck 31.2286 0.331243 0.816525
head 12.6321 0.832718 -0.468685
rclavicle 5.36719e-015 -1.59028e-014
rhumerus 0.347692 58.8486 -79.1512
rradius 103.809
rwrist 22.2662
rhand 1.19849 -52.7787
rfingers 7.12502
rthumb 26.7378 -80.9094
lclavicle 5.36719e-015 -1.59028e-014
lhumerus -42.1831 -21.9383 103.009
lradius 111.011
lwrist 64.9427
lhand -43.2132 -11.5979
lfingers 7.12502
lthumb -16.0636 17.7562
rfemur -0.785956 22.6348 25.5903
rtibia 1.66074
rfoot -10.9138 -17.0315
rtoes -0.889933
lfemur 10.3008 -40.5979 -18.2995
ltibia -4.09057
lfoot -26.6469 53.4522
ltoes 17.6784
552
root -0.555553 17.5091 7.48798 6.10396 -6.23692 -7.50198
lowerback 0.919022 2.79346 5.40684
upperback -8.0346 4.09761 0.455388
thorax -8.65224 1.64399 -2.86355
lowerneck -13.5187 1.28188 4.74768
upperneck 31.2739 0.272945 0.933784
head 12.6548 0.816747 -0.423411
rclavicle -1.90833e-014 -3.97569e-015
rhumerus -0.306235 59.4484 -79.6072
rradius 104.124
rwrist 26.6444
rhand 1.09198 -52.6464
rfingers 7.12502
rthumb 26.6359 -80.7927
lclavicle -1.90833e-014 -3.97569e-015
lhumerus -42.2416 -21.7967 102.748
lradius 110.952
lwrist 66.0238
lhand -44.7773 -10.395
lfingers 7.12502
lthumb -17.5693 18.8311
rfemur -0.769552 22.6292 25.5965
rtibia 1.66801
rfoot -10.878 -17.0678
rtoes -1.05588
lfemur 10.2651 -40.4769 -18.261
ltibia -4.09085
lfoot -26.4259 53.3354
ltoes 17.4738
553
root -0.55531 17.509 7.49192 6.07981 -6.34856 -7.46394
lowerback 0.920987 2.7851 5.85812
upperback -8.03062 4.08758 0.132078
thorax -8.60205 1.59446 -3.45392
lowerneck -13.5337 1.28263 4.89004
upperneck 31.1766 0.161378 1.15568
head 12.619 0.810363 -0.379562
rclavicle 1.07344e-014 5.56597e-015
rhumerus -0.458223 60.1247 -80.0364
rradius 104.18
rwrist 30.817
rhand 1.50699 -52.0988
rfingers 7.12502
rthumb 27.033 -80.1841
lclavicle 1.07344e-014 5.56597e-015
lhumerus -42.2818 -22.0612 102.221
lradius 110.955
lwrist 66.4455
lhand -46.4123 -8.66481
lfingers 7.12502
lthumb -19.1422 20.4132
rfemur -0.763523 22.6042 25.557
rtibia 1.71656
rfoot -10.8849 -16.9636
rtoes -1.36035
lfemur 10.3809 -40.4961 -18.4044
ltibia -4.08428
lfoot -26.7684 53.402
ltoes 17.635
554
root -0.554818 17.5096 7.49636 6.06879 -6.55911 -7.44124
lowerback 0.845369 2.7961 6.61225
upperback -7.97621 4.09931 -0.370674
thorax -8.42152 1.53354 -4.39863
lowerneck -13.5678 1.31396 5.18314
upperneck 31.0066 0.0140988 1.49742
head 12.5602 0.819431 -0.321342
rclavicle 2.41523e-014 1.66979e-014
rhumerus -0.671138 60.7828 -80.9687
rradius 103.916
rwrist 34.3395
rhand 1.78266 -50.533
rfingers 7.12502
rthumb 27.2967 -78.5771
lclavicle 2.41523e-014 1.66979e-014
lhumerus -42.2669 -22.5833 101.454
lradius 111.007
lwrist 66.4501
lhand -47.3129 -6.4782
lfingers 7.12502
lthumb -20.0081 22.5117
rfemur -0.796416 22.5336 25.5116
rtibia 1.777
rfoot -10.8663 -16.7306
rtoes -1.77251
lfemur 10.5372 -40.5103 -18.5754
ltibia -4.09337
lfoot -27.1396 53.5793
ltoes 17.8424
555
root -0.554847 17.5097 7.50174 6.0735 -6.82912 -7.48415
lowerback 0.779169 2.75612 5.47516
upperback -7.9964 4.04166 0.510381
thorax -8.53263 1.61805 -2.82974
lowerneck -13.5837 1.28999 4.53984
upperneck 31.0317 0.279781 1.10996
head 12.5673 0.811629 -0.32003
rclavicle 1.87852e-014 2.94201e-014
rhumerus -2.02665 61.863 -81.4818
rradius 103.322
rwrist 36.8107
rhand 1.57854 -47.1995
rfingers 7.12502
rthumb 27.1014 -75.2742
lclavicle 1.87852e-014 2.94201e-014
lhumerus -42.2937 -21.7511 102.618
lradius 110.898
lwrist 66.3701
lhand -46.9174 -5.3977
lfingers 7.12502
lthumb -19.6279 23.6315
rfemur -0.815112 22.5152 25.5472
rtibia 1.8028
rfoot -10.8277 -16.4799
rtoes -1.93471
lfemur 10.7015 -40.4856 -18.6699
ltibia -4.11185
lfoot -27.3987 53.7373
ltoes 18.1052
556
root -0.554629 17.509 7.5053 6.039 -7.11471 -7.48458
lowerback 0.900232 2.81444 5.32437
upperback -8.05933 4.13012 0.610422
thorax -8.68194 1.67023 -2.65629
lowerneck -13.5824 1.1921 4.37224
upperneck 30.923 0.160164 1.18238
head 12.5185 0.745669 -0.28155
rclavicle 2.3556e-014 1.59028e-015
rhumerus -1.45267 63.5866 -80.5838
rradius 102.984
rwrist 38.2311
rhand -0.0143469 -46.2321
rfingers 7.12502
rthumb 25.5766 -74.5348
lclavicle 2.3556e-014 1.59028e-015
lhumerus -42.4689 -21.7963 102.971
lradius 110.886
lwrist 66.5517
lhand -45.8253 -4.92608
lfingers 7.12502
lthumb -18.5776 24.2068
rfemur -0.793228 22.4775 25.5473
rtibia 1.8256
rfoot -10.7486 -16.2303
rtoes -2.20847
lfemur 10.8826 -40.4326 -18.83
ltibia -4.08227
lfoot -27.8712 53.7917
ltoes 18.5308
